<svg xmlns="http://www.w3.org/2000/svg" width="16" height="16" fill="none" viewBox="0 0 16 16">
  <path
    fill="#fff"
    fill-rule="evenodd"
    d="M14.095 0H1.905A1.905 1.905 0 0 0 0 1.905v9.143c0 1.052.853 1.904 1.905 1.904H3.81v2.286a.762.762 0 0 0 1.299.537l2.822-2.823h6.164A1.905 1.905 0 0 0 16 11.048V1.905A1.906 1.906 0 0 0 14.095 0ZM9.524 8.952H4.57a.762.762 0 1 1 0-1.523h4.953a.762.762 0 1 1 0 1.523h.001Zm1.905-3.428H4.57A.762.762 0 1 1 4.57 4h6.858a.762.762 0 0 1 .001 1.524Z"
    clip-rule="evenodd"
  />
</svg>
