<svg xmlns="http://www.w3.org/2000/svg" width="16" height="16" fill="none" viewBox="0 0 16 16">
  <path
    fill="#fff"
    d="M7.53 7.529V4.67H4.57c-.16.844-.258 1.797-.28 2.859h3.24ZM7.53 3.728V0C6.431.275 5.38 1.535 4.786 3.728H7.53ZM3.352 8.471H0c.057.988.293 1.943.692 2.827h2.925a18.637 18.637 0 0 1-.265-2.827ZM0 7.529h3.35c.02-1.022.11-1.98.265-2.859H.707A7.976 7.976 0 0 0 0 7.53ZM8.47.004v3.724h2.736a8.63 8.63 0 0 0-.743-1.89C9.905.83 9.212.195 8.47.004ZM7.53 8.471H4.29c.026 1.1.13 2.035.28 2.827h2.96V8.471ZM11.284 1.382c.371.673.67 1.46.892 2.346h2.608a8.158 8.158 0 0 0-1.123-1.407A8.01 8.01 0 0 0 10.623.4c.237.288.458.615.66.981ZM11.71 7.529a17.238 17.238 0 0 0-.286-2.859H8.47V7.53h3.24ZM12.193 12.24c-.223.905-.524 1.709-.902 2.392a6.27 6.27 0 0 1-.645.959 8.013 8.013 0 0 0 3.014-1.911c.44-.441.822-.924 1.144-1.44h-2.61ZM3.815 3.728c.222-.892.521-1.685.894-2.36.198-.357.413-.677.645-.958A8.013 8.013 0 0 0 2.34 2.32a8.16 8.16 0 0 0-1.124 1.408h2.599ZM12.377 4.67c.157.88.25 1.837.271 2.859H16a7.98 7.98 0 0 0-.707-2.859h-2.916ZM4.716 14.618c-.375-.68-.676-1.48-.9-2.377h-2.62c.322.515.704.998 1.144 1.439a8.012 8.012 0 0 0 3.036 1.918 6.289 6.289 0 0 1-.66-.98ZM8.47 8.471v2.827h2.966c.156-.835.253-1.778.274-2.827H8.47ZM16 8.471h-3.35a18.592 18.592 0 0 1-.26 2.827h2.918c.4-.885.635-1.84.692-2.827ZM8.47 12.24V16c1.104-.276 2.16-1.547 2.753-3.76H8.47ZM7.53 15.996v-3.755H4.787c.227.836.5 1.464.752 1.921.556 1.008 1.25 1.643 1.993 1.834Z"
  />
</svg>
