<svg xmlns="http://www.w3.org/2000/svg" width="16" height="16" fill="none" viewBox="0 0 16 16">
  <path
    fill="#fff"
    fill-rule="evenodd"
    d="M8 0a8 8 0 1 0 0 16A8 8 0 0 0 8 0Zm3.93 11.393-.053.054a2.46 2.46 0 0 1-3.05.333A14.473 14.473 0 0 1 4.21 7.173a2.46 2.46 0 0 1 .333-3.05l.053-.053a.803.803 0 0 1 1.227.107l1.09 1.56a.797.797 0 0 1-.09 1.026l-.063.067a.607.607 0 0 0-.1.743 5.037 5.037 0 0 0 1.766 1.76c.242.142.549.101.744-.1l.066-.063a.797.797 0 0 1 1.027-.09l1.56 1.09a.804.804 0 0 1 .107 1.223Z"
    clip-rule="evenodd"
  />
</svg>
