<svg xmlns="http://www.w3.org/2000/svg" width="20" height="20" fill="none" viewBox="0 0 20 20">
  <g clip-path="url(#a)">
    <mask
      id="b"
      width="20"
      height="20"
      x="0"
      y="0"
      maskUnits="userSpaceOnUse"
      style="mask-type: luminance"
    >
      <path
        fill="#fff"
        d="M20 10c0-5.523-4.477-10-10-10S0 4.477 0 10s4.477 10 10 10 10-4.477 10-10Z"
      />
    </mask>
    <g mask="url(#b)">
      <path
        fill="url(#c)"
        d="m19.167 10-2.034-2.325.284-3.075-3.009-.683-1.575-2.667L10 2.467 7.167 1.25 5.592 3.908l-3.009.675.284 3.084L.833 10l2.034 2.325-.284 3.083 3.009.684 1.575 2.658L10 17.525l2.833 1.217 1.575-2.659 3.009-.683-.284-3.075L19.167 10Zm-11.35 3.342-1.984-2a.83.83 0 0 1 0-1.175l.059-.059a.84.84 0 0 1 1.183 0l1.342 1.35 4.291-4.3a.84.84 0 0 1 1.184 0l.058.059a.83.83 0 0 1 0 1.175l-4.933 4.95a.86.86 0 0 1-1.2 0Z"
      />
      <path
        fill="#F5F8FA"
        d="m7.817 13.342-1.984-2a.83.83 0 0 1 0-1.175l.059-.059a.84.84 0 0 1 1.183 0l1.342 1.35 4.291-4.3a.84.84 0 0 1 1.184 0l.058.059a.83.83 0 0 1 0 1.175l-4.933 4.95a.86.86 0 0 1-1.2 0Z"
      />
    </g>
  </g>
  <defs>
    <linearGradient
      id="c"
      x1=".833"
      x2="19.207"
      y1="1.25"
      y2="1.293"
      gradientUnits="userSpaceOnUse"
    >
      <stop stop-color="#49DD81" />
      <stop offset="1" stop-color="#22B4C6" />
    </linearGradient>
    <clipPath id="a"><path fill="#fff" d="M0 0h20v20H0z" /></clipPath>
  </defs>
</svg>
